Coordinates
version=1
nRows=8
nColumns=63
inDegrees=yes

Units are S.I. units (second, meters, Newtons, ...)
If the header above contains a line with 'inDegrees', this indicates whether rotational values are in degrees (yes) or radians (no).

endheader
time	pelvis_tilt	pelvis_list	pelvis_rotation	pelvis_tx	pelvis_ty	pelvis_tz	hip_flexion_r	hip_adduction_r	hip_rotation_r	knee_angle_r	knee_angle_r_beta	ankle_angle_r	subtalar_angle_r	mtp_angle_r	hip_flexion_l	hip_adduction_l	hip_rotation_l	knee_angle_l	knee_angle_l_beta	ankle_angle_l	subtalar_angle_l	mtp_angle_l	L5_S1_Flex_Ext	L5_S1_Lat_Bending	L5_S1_axial_rotation	L4_L5_Flex_Ext	L4_L5_Lat_Bending	L4_L5_axial_rotation	L3_L4_Flex_Ext	L3_L4_Lat_Bending	L3_L4_axial_rotation	L2_L3_Flex_Ext	L2_L3_Lat_Bending	L2_L3_axial_rotation	L1_L2_Flex_Ext	L1_L2_Lat_Bending	L1_L2_axial_rotation	L1_T12_Flex_Ext	L1_T12_Lat_Bending	L1_T12_axial_rotation	Abs_r3	Abs_r2	Abs_r1	Abs_t1	Abs_t2	neck_flexion	neck_bending	neck_rotation	arm_flex_r	arm_add_r	arm_rot_r	elbow_flex_r	pro_sup_r	wrist_flex_r	wrist_dev_r	arm_flex_l	arm_add_l	arm_rot_l	elbow_flex_l	pro_sup_l	wrist_flex_l	wrist_dev_l
0.000000	2.966059	-4.195664	100.408261	0.110509	1.062125	-0.130615	-8.549384	1.865803	6.852979	6.031659	0.105272	26.517800	-16.872889	0.000000	-8.492457	-1.514587	7.966781	2.054392	0.035856	33.313115	1.198619	0.000000	0.117517	0.146587	-0.076427	0.218241	0.194960	-0.081203	0.193069	0.356411	-0.081203	0.134310	0.356411	-0.066873	0.109127	0.298920	-0.062097	0.067149	0.227063	-0.057320	0.839414	1.658218	-0.425062	0.000000	0.000000	19.092716	-0.228762	12.566088	8.845066	-10.902064	50.848301	44.976889	86.825477	7.652841	10.456397	7.283829	-4.622372	50.016884	41.271968	81.863206	1.726677	13.861458
0.017857	2.717374	-4.189241	98.812692	0.112144	1.061738	-0.130866	-8.169320	1.424411	8.974956	6.702734	0.116985	27.033734	-17.145734	0.000000	-8.406684	-0.942698	7.194498	2.552889	0.044556	33.820794	0.267033	0.000000	0.143537	0.126456	0.223361	0.266562	0.168186	0.237321	0.235816	0.307465	0.237321	0.164048	0.307465	0.195441	0.133288	0.257869	0.181481	0.082017	0.195880	0.167521	1.025267	1.430494	1.242266	0.000000	0.000000	18.997133	0.491597	13.363247	8.416482	-11.057921	48.655588	45.530932	73.392209	6.562880	13.099288	8.096868	-4.665658	51.315407	41.212257	82.981485	1.042261	12.298414
0.035714	2.533677	-4.189799	97.517718	0.113418	1.061377	-0.131202	-7.868459	1.079044	10.693909	7.219489	0.126004	27.491051	-17.359421	0.000000	-8.322525	-0.495142	6.491916	2.986829	0.052130	34.290223	-0.405006	0.000000	0.165769	0.114018	0.453665	0.307850	0.151644	0.482020	0.272342	0.277223	0.482020	0.189457	0.277223	0.396957	0.153933	0.232505	0.368603	0.094720	0.176614	0.340249	1.184071	1.289792	2.523151	0.000000	0.000000	18.972950	1.090863	14.160828	8.070462	-11.201457	46.963095	46.063197	61.669505	5.470243	15.254072	8.724151	-4.712874	52.212207	41.212072	84.005087	0.611294	10.983085
0.053571	2.408217	-4.195530	96.497763	0.114366	1.061045	-0.131615	-7.641426	0.820804	12.044041	7.595302	0.132563	27.894049	-17.518904	0.000000	-8.242214	-0.160359	5.860076	3.359685	0.058638	34.719745	-0.847508	0.000000	0.184457	0.108373	0.621001	0.342556	0.144137	0.659814	0.303045	0.263499	0.659814	0.210816	0.263499	0.543376	0.171287	0.220995	0.504564	0.105399	0.167870	0.465751	1.317560	1.225942	3.453823	0.000000	0.000000	19.007835	1.581187	14.953809	7.802382	-11.331265	45.723935	46.566099	51.556265	4.392553	16.959211	9.184116	-4.763076	52.751686	41.261270	84.912729	0.404976	9.895386
0.071429	2.334246	-4.204625	95.727257	0.115024	1.060746	-0.132097	-7.482846	0.640794	13.059560	7.843554	0.136896	28.247027	-17.629135	0.000000	-8.167988	0.073210	5.300018	3.674929	0.064140	35.107701	-1.090485	0.000000	0.199844	0.108624	0.731882	0.371130	0.144470	0.777625	0.328324	0.264108	0.777625	0.228402	0.264108	0.640397	0.185575	0.221506	0.594654	0.114191	0.168259	0.548911	1.427466	1.228776	4.070508	0.000000	0.000000	19.089452	1.974720	15.737172	7.607619	-11.445939	44.891218	47.032053	42.951389	3.347438	18.253172	9.495203	-4.815317	52.978250	41.349710	85.683124	0.394507	9.015237
0.089286	2.305015	-4.215273	95.180625	0.115427	1.060482	-0.132640	-7.387343	0.530115	13.774672	7.977626	0.139236	28.554285	-17.695068	0.000000	-8.102085	0.217124	4.812782	3.936033	0.068697	35.452435	-1.163947	0.000000	0.212172	0.113871	0.792821	0.394025	0.151448	0.842373	0.348577	0.276865	0.842373	0.242491	0.276865	0.693719	0.197023	0.232205	0.644167	0.121235	0.176386	0.594616	1.515523	1.288127	4.409434	0.000000	0.000000	19.205468	2.283614	16.505896	7.481548	-11.544072	44.418057	47.453472	35.753777	2.352522	19.174419	9.675850	-4.868651	52.936303	41.467248	86.294990	0.551087	8.322554
0.107143	2.313777	-4.225666	94.832295	0.115611	1.060257	-0.133236	-7.349542	0.479871	14.223583	8.010895	0.139816	28.820121	-17.721654	0.000000	-8.046741	0.282941	4.399408	4.146472	0.072370	35.752289	-1.097905	0.000000	0.221684	0.123214	0.810333	0.411689	0.163875	0.860979	0.364204	0.299583	0.860979	0.253362	0.299583	0.709041	0.205855	0.251259	0.658395	0.126670	0.190859	0.607750	1.583464	1.393826	4.506828	0.000000	0.000000	19.343547	2.520018	17.254961	7.419545	-11.624258	44.257563	47.822773	29.862331	1.425431	19.761416	9.744496	-4.922132	52.670249	41.603743	86.727042	0.845917	7.797254
0.125000	2.353780	-4.233994	94.656693	0.115610	1.060073	-0.133878	-7.364068	0.481163	14.440499	7.956742	0.138871	29.048833	-17.713848	0.000000	-8.004191	0.282221	4.060936	4.309717	0.075219	36.005607	-0.922370	0.000000	0.228622	0.135756	0.790931	0.424573	0.180556	0.840364	0.375602	0.330078	0.840364	0.261292	0.330078	0.692064	0.212298	0.276835	0.642631	0.130634	0.210287	0.593198	1.633021	1.535704	4.398919	0.000000	0.000000	19.491356	2.696086	17.979348	7.416987	-11.685089	44.362847	48.132368	25.175949	0.583792	20.052629	9.719580	-4.974813	52.224491	41.749054	86.957995	1.250195	7.419256
